PathFileType	4	(X/Y/Z)	C:\Users\Graham\Documents\MATLAB\MOtoNMS_v2_2\MyData\ElaboratedData\S1\17-05-18\dynamicElaborations\rightStSt\\ET2\ET2.trc
DataRate	CameraRate	NumFrames	NumMarkers	Units	OrigDataRate	DataStartFrame
100	100	7	29	mm	100	106
Frame#	Time	V_Sacral			R_ASIS			L_ASIS			R_Knee_Lat			R_Thigh_Upper			R_Thigh_Front			R_Thigh_Rear			L_Knee_Lat			L_Thigh_Upper			L_Thigh_Front			L_Thigh_Rear			R_Ankle_Lat			R_Shank_Upper			R_Shank_Front			R_Shank_Rear			L_Ankle_Lat			L_Shank_Upper			L_Shank_Front			L_Shank_Rear			R_Heel			R_MTP1			R_MTP5			L_Heel			L_MTP1			L_MTP5			Clavicle			C7			R_Acromium			L_Acromium		
		X1	Y1	Z1	X2	Y2	Z2	X3	Y3	Z3	X4	Y4	Z4	X5	Y5	Z5	X6	Y6	Z6	X7	Y7	Z7	X8	Y8	Z8	X9	Y9	Z9	X10	Y10	Z10	X11	Y11	Z11	X12	Y12	Z12	X13	Y13	Z13	X14	Y14	Z14	X15	Y15	Z15	X16	Y16	Z16	X17	Y17	Z17	X18	Y18	Z18	X19	Y19	Z19	X20	Y20	Z20	X21	Y21	Z21	X22	Y22	Z22	X23	Y23	Z23	X24	Y24	Z24	X25	Y25	Z25	X26	Y26	Z26	X27	Y27	Z27	X28	Y28	Z28	X29	Y29	Z29	

154	1.530000	-66.238074	1030.204426	45.420639	253.331402	1025.223923	160.948176	235.511121	1033.670203	-93.226305	124.822087	527.099819	169.183839	239.666861	861.829947	194.871279	254.411803	741.287263	153.528732	196.919664	736.560527	208.880297	306.656187	557.994082	-134.961263	289.329189	890.052503	-118.510833	337.095599	782.271268	-69.870752	308.619594	768.148490	-149.672418	44.795011	108.660939	136.512294	141.565332	313.680865	130.767763	95.449887	214.935953	65.952841	91.446605	202.339890	146.661528	266.544574	117.082023	-114.035019	345.870418	344.283206	-107.445617	322.326296	231.436552	-52.502755	300.320643	231.060663	-130.760899	-32.528325	57.637772	82.271172	192.310753	62.059509	37.852969	190.490155	53.815781	117.447885	201.825486	75.686616	-51.348871	434.560804	73.248783	-65.424292	401.844733	63.562564	-150.509685	270.304751	1462.795863	50.614027	130.890195	1574.028681	63.708383	233.765454	1487.682918	250.212167	195.335187	1509.479129	-153.869345	
155	1.540000	-66.827332	1029.525452	44.904055	252.664291	1024.222623	160.640103	235.060263	1032.685075	-93.536987	118.007779	527.018472	168.943903	237.383562	860.425720	194.947644	250.972720	739.766268	153.517319	192.712563	735.500719	208.336147	305.281549	556.388734	-133.568820	288.442332	888.313381	-118.441392	335.768214	780.465446	-69.512169	307.452581	766.275810	-149.328566	35.451892	108.720947	136.643471	133.372267	313.534847	131.031212	86.837495	214.921599	66.132644	82.453787	202.394699	146.859285	288.374732	114.107996	-115.223765	355.179390	345.185524	-107.410179	337.807607	230.940389	-53.097954	315.754021	229.829181	-131.406198	-42.017474	57.856236	82.339978	182.982076	61.853388	37.944369	181.078514	53.498293	117.544499	225.535975	69.933796	-52.608400	458.089086	77.110437	-66.866352	425.745080	66.267282	-151.986809	270.053549	1461.735941	50.651064	130.683584	1573.045876	63.637298	233.270017	1486.527473	250.146529	195.481613	1508.767353	-153.929405	
156	1.550000	-67.303738	1028.706801	44.335218	252.107933	1023.135245	160.287054	234.721679	1031.567695	-93.891363	111.320054	526.923893	168.680611	235.147407	858.964771	194.978299	247.590766	738.173128	153.532963	188.638685	734.483364	207.762366	303.812677	554.541571	-132.174273	287.666512	886.130148	-118.347038	334.213549	778.073121	-69.103754	306.081527	763.908763	-148.920021	26.140116	108.796814	136.775799	125.234950	313.379695	131.296845	78.293363	214.926366	66.318895	73.518886	202.481120	147.059441	309.716453	112.209872	-116.390902	364.080132	346.431690	-107.202674	352.649043	231.130808	-53.579163	330.803075	229.316600	-131.971797	-51.477031	58.104317	82.409241	173.653930	61.642484	38.050692	171.674957	53.186469	117.644105	248.745164	65.235718	-54.044744	480.723546	82.206744	-67.820853	449.061769	70.264974	-153.039804	269.853999	1460.574131	50.587436	130.486831	1571.936902	63.445961	232.825570	1485.300831	249.963983	195.694445	1507.919224	-154.092813	
157	1.560000	-67.658000	1027.734769	43.708079	251.661058	1021.958839	159.890534	234.499290	1030.316294	-94.289132	104.813167	526.789985	168.439331	232.977855	857.444778	194.937302	244.279829	736.518652	153.536024	184.728266	733.497616	207.163636	302.396264	552.544892	-130.792710	287.011805	883.546615	-118.217750	332.481865	775.175329	-68.614337	304.571325	761.100075	-148.432921	16.866585	108.889276	136.907303	117.172228	313.190829	131.555281	69.824796	214.936326	66.508521	64.668083	202.592108	147.255330	330.362109	111.377941	-117.523553	372.529487	348.021544	-106.819887	366.717183	231.973599	-53.936689	345.330295	229.536487	-132.449710	-60.893169	58.380853	82.477767	164.323220	61.422422	38.175023	162.279760	52.884195	117.743148	271.201615	61.575786	-55.694904	502.219825	88.440354	-68.210950	471.573852	75.522333	-153.606841	269.707437	1459.313518	50.414548	130.315370	1570.709742	63.123197	232.437068	1484.008426	249.656936	195.964576	1506.932145	-154.367584	
158	1.570000	-67.886273	1026.599038	43.017853	251.317756	1020.693568	159.453080	234.391387	1028.933236	-94.729165	98.558238	526.598149	168.268598	230.906114	855.861866	194.802741	241.055796	734.810085	153.481386	181.008469	732.518620	206.546936	301.173742	550.501735	-129.442876	286.487306	880.646889	-118.042731	330.660468	771.908948	-68.013561	303.013437	757.945420	-147.852833	7.636400	108.999513	137.037615	109.218543	312.951649	131.795349	61.437013	214.938959	66.698087	55.927194	202.716146	147.441764	350.111291	111.541234	-118.599261	380.488778	349.927133	-106.270661	379.897646	233.399912	-54.163527	359.200561	230.453504	-132.831971	-70.263777	58.687959	82.547128	154.990129	61.187430	38.317176	152.894060	52.592306	117.837426	292.663080	58.908945	-57.560493	522.351802	95.605670	-67.992607	493.046740	81.883857	-153.650948	269.615949	1457.959639	50.124283	130.186438	1569.376284	62.658766	232.105901	1482.654787	249.221016	196.285090	1505.804713	-154.761765	
159	1.580000	-67.990933	1025.296186	42.261771	251.068431	1019.344142	158.978016	234.391331	1027.426798	-95.209405	92.631704	526.338521	168.207968	228.969999	854.212673	194.558870	237.939747	733.052854	153.325355	177.507767	731.515702	205.919857	300.267714	548.514495	-128.151320	286.105063	877.553422	-117.814133	328.864259	768.453426	-67.280444	301.517478	754.579282	-147.168513	-1.547512	109.129945	137.168770	101.416097	312.651525	132.006762	53.133693	214.924949	66.885313	47.319036	202.838804	147.616845	368.768592	112.562656	-119.580159	387.926095	352.088098	-105.579204	392.101235	235.306406	-54.254699	372.283957	231.977014	-133.107730	-79.595559	59.030797	82.621707	145.656921	60.932758	38.473667	143.518434	52.309405	117.923397	312.905071	57.149911	-59.584886	540.926985	103.410597	-67.170372	513.240997	89.078231	-153.170372	269.582958	1456.521651	49.710029	130.117158	1567.952371	62.045307	231.831673	1481.244648	248.655318	196.650877	1504.537475	-155.282516	
160	1.590000	-67.980260	1023.832799	41.439601	250.901463	1017.920707	158.468946	234.489085	1025.812419	-95.727078	87.100679	526.008574	168.275033	227.206978	852.497169	194.197748	234.959718	731.253041	153.033319	174.257167	730.460790	205.288188	299.772604	546.672258	-126.953527	285.882519	874.417578	-117.531027	327.225036	765.011956	-66.411387	300.200341	751.164096	-146.377180	-10.684260	109.285089	137.305286	93.806709	312.283713	132.182418	44.917740	214.889129	67.070057	38.861281	202.945709	147.782864	386.138524	114.240322	-120.410837	394.818239	354.409612	-104.784904	403.265286	237.556943	-54.206050	384.456823	233.960389	-133.261555	-88.899870	59.417296	82.707909	136.326297	60.656799	38.638193	134.151625	52.033023	117.998977	331.723280	56.163054	-61.643749	557.793112	111.509820	-65.803846	531.920104	96.741754	-152.202741	269.613455	1455.012985	49.167452	130.123301	1566.457437	61.279867	231.614414	1479.784229	247.962483	197.057938	1503.134360	-155.935192	
